<svg width="39" height="40" viewBox="0 0 39 40" fill="none" xmlns="http://www.w3.org/2000/svg">
<path d="M35.5418 1.5094H3.46125C2.36242 1.5094 1.47164 2.42302 1.47164 3.55002V36.4531C1.47164 37.5802 2.36242 38.4938 3.46125 38.4938H35.5418C36.6406 38.4938 37.5314 37.5802 37.5314 36.4531V3.55002C37.5314 2.42302 36.6406 1.5094 35.5418 1.5094Z" fill="#3D5A98"/>
<path d="M26.3494 38.4907V24.1688H31.0355L31.7363 18.5875H26.3494V15.025C26.3494 13.4094 26.7881 12.3063 29.0459 12.3063H31.9282V7.30628C30.5324 7.15736 29.1298 7.08642 27.7266 7.09378C23.5767 7.09378 20.7188 9.68753 20.7188 14.4719V18.5875H16.0327V24.1688H20.7188V38.4907H26.3494Z" fill="white"/>
</svg>
