<?xml version="1.0" encoding="UTF-8"?>
<svg version="1.1" xmlns="http://www.w3.org/2000/svg" width="1500" height="500">
<path d="M0 0 C41.52555959 -0.1209091 41.52555959 -0.1209091 58.98632812 -0.14648438 C71.02127945 -0.16425434 83.05616755 -0.18509394 95.09106445 -0.22631836 C103.85775552 -0.25633338 112.62439508 -0.2756016 121.39113611 -0.28226548 C126.02786703 -0.28615734 130.66445066 -0.29522631 135.30113411 -0.31719017 C139.67679098 -0.3377471 144.05224169 -0.34379554 148.42794228 -0.33932304 C150.02292252 -0.34013975 151.61791059 -0.34598993 153.21284866 -0.35761642 C179.2641286 -0.53799935 203.30241398 7.58655914 222.09765625 26.0625 C223.06736437 27.03942835 224.03499146 28.01842914 225 29 C226.14275391 30.1446875 226.14275391 30.1446875 227.30859375 31.3125 C246.12777148 51.268899 251.85602219 76.76892114 251.13183594 103.31347656 C249.88401352 128.74132444 236.45894949 150.62939609 218.28125 167.52734375 C199.57521453 183.62003603 176.78299324 190.54894651 152.35375977 190.34057617 C150.96240253 190.33972689 149.57104396 190.34021088 148.1796875 190.34190369 C144.45536561 190.34275336 140.73134229 190.32529748 137.0070889 190.30418181 C133.0953944 190.2852405 129.18369068 190.28365099 125.2719574 190.28010559 C117.88816279 190.2708358 110.50450378 190.24629178 103.12076849 190.21605712 C93.12644947 190.17603392 83.13209255 190.16001723 73.13771343 190.14255047 C57.42504102 190.11446608 41.71265453 190.05466327 26 190 C26 222.34 26 254.68 26 288 C36.89 288 47.78 288 59 288 C59 267.54 59 247.08 59 226 C69.085625 225.5875 79.17125 225.175 89.5625 224.75 C92.71498291 224.56791992 95.86746582 224.38583984 99.11547852 224.19824219 C118.37966935 223.54926015 118.37966935 223.54926015 124.74530029 227.85839844 C129.43074128 232.47502364 132.65852316 237.81510373 135.70675659 243.6060791 C137.35058075 246.64895949 139.26197811 249.15946777 141.4375 251.84375 C142.03167725 252.62532471 142.62585449 253.40689941 143.23803711 254.2121582 C144.49162827 255.83989865 145.76259874 257.45431809 147.04516602 259.05932617 C150.53208379 263.47690578 153.45306791 267.6923064 155.90234375 272.76953125 C159.0433955 278.7721762 161.80917885 283.81360428 168 287 C181.12988905 290.02252152 195.71875559 288.1955971 209 287 C208.34555908 286.22366211 207.69111816 285.44732422 207.0168457 284.64746094 C202.24025159 278.96158554 197.56607008 273.25121664 193.1875 267.25 C189.0945036 261.71430252 184.87316426 256.3168952 180.5 251 C175.93657488 245.44539563 171.50507077 239.81065343 167.1875 234.0625 C166.66542969 233.36962891 166.14335937 232.67675781 165.60546875 231.96289062 C162 227.12783946 162 227.12783946 162 226 C166.65845313 225.70054447 171.31118768 225.48444425 175.97705078 225.34082031 C177.55877296 225.28091391 179.13984285 225.19933972 180.71923828 225.09472656 C193.42635597 224.27491252 193.42635597 224.27491252 197.66772461 227.11785889 C201.08999941 230.29602406 203.50149686 234.06880556 206 238 C207.54402141 240.07503518 209.14594426 242.09519876 210.75 244.125 C211.58115751 245.2109173 212.41096171 246.29787461 213.23828125 247.38671875 C216.44446394 251.59121964 219.69016988 255.7647422 222.9375 259.9375 C223.53788086 260.70916504 224.13826172 261.48083008 224.75683594 262.27587891 C228.32614575 266.85987869 231.90679186 271.43471622 235.5 276 C241.4748704 283.59126046 247.40846565 291.21441996 253.32958984 298.84765625 C254.41749976 300.24944137 255.50632117 301.65051971 256.59619141 303.05078125 C258.02475323 304.8862556 259.45032077 306.72401137 260.875 308.5625 C261.67679687 309.59503906 262.47859375 310.62757813 263.3046875 311.69140625 C265 314 265 314 265 315 C250.77067866 315.44569291 236.54245197 315.77849253 222.30756187 315.98443127 C215.69605749 316.08331583 209.08926215 316.21722728 202.48046875 316.43334961 C196.09334332 316.64089861 189.71072275 316.75360866 183.32048416 316.80266762 C180.8919238 316.8375884 178.46359152 316.90579678 176.03696823 317.00887108 C157.54165955 317.76272697 157.54165955 317.76272697 151.62476349 313.14715958 C147.38744558 308.66278225 144.25191586 303.65407432 141.29231644 298.26555824 C139.50336674 295.12935288 137.38863883 292.4348842 135.125 289.625 C130.63824943 283.83396147 126.18910639 278.01515161 121.75 272.1875 C121.07598145 271.30336426 120.40196289 270.41922852 119.70751953 269.50830078 C118.41448831 267.81081733 117.12324298 266.11197167 115.83398438 264.41162109 C114.62388899 262.82039077 113.40656824 261.23462601 112.18164062 259.65478516 C111.63185547 258.93983887 111.08207031 258.22489258 110.515625 257.48828125 C110.02868164 256.86091064 109.54173828 256.23354004 109.04003906 255.5871582 C108 254 108 254 108 252 C100.41 252 92.82 252 85 252 C85 272.79 85 293.58 85 315 C56.95 315 28.9 315 0 315 C0 264.84 0 214.68 0 163 C11.91609375 162.96261719 23.8321875 162.92523438 36.109375 162.88671875 C43.66537615 162.85643739 51.22136206 162.82540949 58.77734375 162.79101562 C70.76642462 162.7365814 82.7554632 162.6851661 94.74462891 162.65356445 C103.47729748 162.6305324 112.20985452 162.59707645 120.94243455 162.55129844 C125.56281305 162.52743629 130.18308157 162.5086617 134.8035202 162.50238609 C139.16036424 162.49630339 143.51692715 162.4761896 147.87366676 162.44572449 C149.46503809 162.43699502 151.05644623 162.43321101 152.6478405 162.43499184 C173.42026245 162.45088494 190.08158221 156.56545556 205.14453125 141.9140625 C220.23722106 125.92677731 223.71173358 107.72392136 223.12744141 86.58544922 C222.29444042 69.68606144 212.20796855 54.88685517 200.5 43.375 C185.18797933 30.06840577 166.4277071 26.88699504 146.79101562 26.79467773 C145.48286896 26.78477814 144.17472229 26.77487854 142.82693481 26.76467896 C139.26142564 26.73780227 135.69590347 26.71670018 132.13035011 26.69667697 C128.39608049 26.67471021 124.66185015 26.64737415 120.9276123 26.62062073 C113.86595641 26.57083763 106.80427855 26.52584585 99.74257994 26.48259836 C90.19327933 26.42383723 80.64403051 26.35762822 71.09477615 26.29184818 C56.06321907 26.18849867 41.03161709 26.09506001 26 26 C26 59.33 26 92.66 26 127 C17.42 127 8.84 127 0 127 C0 85.09 0 43.18 0 0 Z " fill="#8C1837" transform="translate(196,93)"/>
<path d="M0 0 C115.80697051 0 115.80697051 0 134 13 C135.0725 13.763125 136.145 14.52625 137.25 15.3125 C145.59646458 23.4692722 150.0424468 33.31771206 150.47314453 44.94189453 C150.62257708 58.8282541 147.4362513 69.46058982 138 80 C135.46093653 82.23247587 132.85907458 84.19787055 130 86 C130.86882812 86.51949219 131.73765625 87.03898437 132.6328125 87.57421875 C145.26277939 95.1811113 154.23473982 102.47365555 158.41772461 117.29467773 C159.39715272 121.84521982 159.48860306 126.29685561 159.4375 130.9375 C159.42614014 132.38600342 159.42614014 132.38600342 159.41455078 133.86376953 C159.10628537 147.18218539 154.39599909 156.01720883 144.875 165.125 C130.13143632 177.61539448 110.31440681 180.18640587 91.61499023 180.11352539 C90.09679861 180.11370619 90.09679861 180.11370619 88.54793644 180.11389065 C85.3014658 180.11314972 82.055054 180.10555918 78.80859375 180.09765625 C76.79235868 180.09618429 74.77612323 180.09516514 72.7598877 180.09460449 C65.31908593 180.08938109 57.87829238 180.07541983 50.4375 180.0625 C33.793125 180.041875 17.14875 180.02125 0 180 C0 120.6 0 61.2 0 0 Z M34 27 C34 43.17 34 59.34 34 76 C41.0253149 76.04616855 48.05009315 76.08591705 55.07543945 76.10986328 C57.46022333 76.11985697 59.84499515 76.13345644 62.22973633 76.15087891 C65.67792759 76.17542119 69.1259554 76.18654976 72.57421875 76.1953125 C73.62268478 76.20563507 74.67115082 76.21595764 75.75138855 76.22659302 C87.67002925 76.22835804 100.55626821 75.6235285 109.87890625 67.328125 C114.5897571 62.19727058 116.46555943 57.13769629 116.25 50.078125 C115.4701266 43.59542734 112.65926742 38.55572815 108 34 C96.87392931 26.87931476 84.07480772 26.83745597 71.3046875 26.90234375 C70.35150635 26.90335083 69.3983252 26.90435791 68.41625977 26.90539551 C64.90249403 26.9105731 61.38874563 26.92453373 57.875 26.9375 C46.056875 26.9684375 46.056875 26.9684375 34 27 Z M34 102 C34 118.83 34 135.66 34 153 C41.83518837 153.06322477 49.66943188 153.12329196 57.50465393 153.15525055 C61.15474567 153.17097471 64.80462225 153.19192173 68.45458984 153.22631836 C71.9818924 153.2593442 75.50898872 153.27694208 79.03643417 153.28463173 C81.01134809 153.29272705 82.98618111 153.31607386 84.96096802 153.33988953 C97.3021391 153.34214429 110.19591702 152.42290669 119.51953125 143.5546875 C124.58254408 137.98099614 125.54581829 132.17299669 125.3671875 124.87890625 C124.61784632 119.00375255 122.35958937 114.24137347 118.05078125 110.1484375 C106.1353864 101.46324843 90.8696129 101.8403364 76.7734375 101.90234375 C75.54460846 101.9037587 74.31577942 101.90517365 73.04971313 101.90663147 C69.15811642 101.91219041 65.26657907 101.9247352 61.375 101.9375 C58.72265709 101.94252031 56.07031326 101.94708228 53.41796875 101.95117188 C46.9452717 101.96129179 40.47270163 101.98087514 34 102 Z " fill="#8C1837" transform="translate(1140,94)"/>
<path d="M0 0 C1.70615479 0.00845947 1.70615479 0.00845947 3.44677734 0.01708984 C29.44652295 0.39025658 53.12403856 9.96094913 72.015625 27.9453125 C89.51286346 46.35498365 97.72145233 70.09931587 97.40234375 95.2734375 C96.33037087 116.65792208 89.93995171 137.38300119 75.25 153.3125 C74.43917969 154.21484375 73.62835937 155.1171875 72.79296875 156.046875 C55.1092589 174.79212527 30.63945588 184.10264223 5.14990234 185.29125977 C-21.8937811 185.96867149 -48.60596961 178.39448942 -68.55078125 159.4453125 C-69.63939453 158.38957031 -69.63939453 158.38957031 -70.75 157.3125 C-71.36230469 156.77367187 -71.97460938 156.23484375 -72.60546875 155.6796875 C-87.67530448 141.95475702 -95.72242054 119.22185205 -96.75 99.3125 C-97.72279469 74.62783481 -91.55351633 50.7635812 -75.15234375 31.8671875 C-55.15150388 10.59800169 -29.07585829 -0.15227518 0 0 Z M-49.8828125 53.82421875 C-61.35892261 69.24989922 -63.51541152 87.0880106 -61.35546875 105.71484375 C-57.89486752 121.99083277 -48.57134843 135.84069456 -34.96801758 145.20288086 C-20.03266847 154.84490641 -2.30960238 156.0056567 14.94140625 153.8515625 C31.2352184 150.16321621 44.270481 140.50862751 53.30859375 126.65234375 C62.25465832 111.26223267 64.99691975 93.40909798 61.1875 75.9375 C56.21574562 59.67046953 46.37930326 45.59706723 31.25 37.3125 C26.9931511 35.36859098 22.69806373 33.76123323 18.25 32.3125 C17.16332031 31.94125 17.16332031 31.94125 16.0546875 31.5625 C-8.3727824 24.66533203 -34.01184001 35.13367789 -49.8828125 53.82421875 Z " fill="#8C1837" transform="translate(1008.75,91.6875)"/>
<path d="M0 0 C113.48307489 0 113.48307489 0 135.4921875 21.20703125 C148.30445563 35.47614606 151.82117796 52.41544615 151 71 C149.49560987 87.76320427 142.54160562 101.67267274 129.875 112.8125 C109.44324837 128.45511706 86.05539557 128.57636252 61.375 128.25 C58.71095108 128.22757411 56.04691144 128.21164865 53.3828125 128.1953125 C46.92120277 128.15512836 40.46168715 128.07677252 34 128 C34 145.16 34 162.32 34 180 C22.78 180 11.56 180 0 180 C0 120.6 0 61.2 0 0 Z M34 29 C34 52.1 34 75.2 34 99 C42.146875 99.0825 50.29375 99.165 58.6875 99.25 C62.50380981 99.30462402 62.50380981 99.30462402 66.3972168 99.36035156 C81.26807024 99.4850716 95.19599861 99.34936688 107 89 C114.53278221 81.02021753 116.5043055 73.1083829 116.41967773 62.36181641 C116.07044522 52.12739474 112.40212511 45.04184468 105 38 C91.44172496 26.37862139 69.89058715 28.86094951 53.25 28.9375 C46.8975 28.958125 40.545 28.97875 34 29 Z " fill="#8C1837" transform="translate(557,94)"/>
<path d="M0 0 C92.75182334 0 92.75182334 0 105.9375 4.25 C106.63367432 4.46688477 107.32984863 4.68376953 108.04711914 4.90722656 C118.8620679 8.42749927 126.96725265 13.98141976 135 22 C135.57621094 22.56460938 136.15242187 23.12921875 136.74609375 23.7109375 C146.9821808 34.61170553 150.57770201 49.40353266 150.375 63.9375 C150.36484863 64.99291992 150.35469727 66.04833984 150.34423828 67.13574219 C149.99926131 84.42737856 144.36767962 97.78581995 132 110 C131.45859375 110.56332031 130.9171875 111.12664062 130.359375 111.70703125 C116.36836773 125.09741447 95.52617785 128.17780088 77.06640625 128.09765625 C75.21679543 128.09553383 75.21679543 128.09553383 73.32981873 128.09336853 C69.40735405 128.08778941 65.48494731 128.07524068 61.5625 128.0625 C58.89648521 128.05691698 56.23047096 128.05291987 53.56445312 128.04882812 C47.04292869 128.03867947 40.52152889 128.01909982 34 128 C34 145.16 34 162.32 34 180 C22.78 180 11.56 180 0 180 C0 120.6 0 61.2 0 0 Z M34 29 C34 52.1 34 75.2 34 99 C42.0025 99.061875 50.005 99.12375 58.25 99.1875 C60.75110352 99.21481201 63.25220703 99.24212402 65.82910156 99.27026367 C67.84960449 99.27903953 69.8701128 99.28668085 71.890625 99.29296875 C72.90882324 99.30831665 73.92702148 99.32366455 74.97607422 99.33947754 C86.28208172 99.34352118 96.97493446 97.14283262 106 90 C113.83492206 81.85035591 116.41004941 72.36826679 116.2734375 61.26171875 C115.59084388 53.11935195 112.91839523 45.66979507 107.18359375 39.75 C91.57134467 27.23785762 71.56601902 28.84859675 52.75 28.9375 C46.5625 28.958125 40.375 28.97875 34 29 Z " fill="#8C1837" transform="translate(740,94)"/>
<path d="M0 0 C7.26 0 14.52 0 22 0 C22.33 18.48 22.66 36.96 23 56 C26.980625 52.04 30.96125 48.08 35.0625 44 C36.92467163 42.15148437 36.92467163 42.15148437 38.82446289 40.265625 C43.82078539 35.29021051 48.70958624 30.30618343 53.28491211 24.93554688 C56.90525792 20.84983847 60.86167711 17.07822516 64.75 13.25 C66.43464038 11.5909232 68.11702513 9.92955212 69.796875 8.265625 C70.53260742 7.54149414 71.26833984 6.81736328 72.02636719 6.07128906 C74.05119053 4.08514067 74.05119053 4.08514067 75.40258789 1.7578125 C77 0 77 0 79.63549805 -0.45410156 C81.18297729 -0.42268066 81.18297729 -0.42268066 82.76171875 -0.390625 C83.87998047 -0.37773437 84.99824219 -0.36484375 86.15039062 -0.3515625 C87.31763672 -0.31804687 88.48488281 -0.28453125 89.6875 -0.25 C90.86634766 -0.23195313 92.04519531 -0.21390625 93.25976562 -0.1953125 C96.17398926 -0.14811859 99.08659031 -0.08229077 102 0 C100.19460795 3.86766353 97.71400346 6.72417942 94.8125 9.8125 C94.0704834 10.61252441 94.0704834 10.61252441 93.31347656 11.42871094 C90.15195337 14.821213 86.91187761 18.11962718 83.6015625 21.3671875 C81.86140423 23.14130008 80.24399786 24.98986551 78.625 26.875 C75.33393213 30.69736134 71.80038898 34.21736377 68.2109375 37.7578125 C65.5143361 40.49252841 62.9975184 43.35073927 60.5078125 46.2734375 C59.06727105 47.92296942 57.56673075 49.47079574 56 51 C57.67075716 54.83345948 60.16118317 57.94412437 62.75 61.1875 C63.46929688 62.09628906 63.46929688 62.09628906 64.203125 63.0234375 C68.65931163 68.62777425 73.22052672 74.14482205 77.78808594 79.65844727 C82.06272775 84.82883474 86.23176687 90.07204337 90.35473633 95.36376953 C93.46297134 99.34452253 96.66187917 103.21078176 100 107 C104.72761622 97.77264806 109.11466158 88.44863977 113.28103638 78.95663452 C114.99556953 75.05210401 116.7227563 71.15317326 118.44921875 67.25390625 C118.81256821 66.43279861 119.17591766 65.61169098 119.55027771 64.76570129 C124.00279477 54.71639794 128.53082437 44.70129332 133.0625 34.6875 C133.45932983 33.80952759 133.85615967 32.93155518 134.26501465 32.02697754 C139.106215 21.31741178 144.00805582 10.64019974 149 0 C156.26 0 163.52 0 171 0 C179.41769565 18.31296553 187.77166161 36.64919702 195.91412354 55.08639526 C199.78088374 63.8377944 203.69911169 72.5619088 207.71484375 81.24609375 C208.10568649 82.09194031 208.49652924 82.93778687 208.8992157 83.80926514 C210.78952557 87.89654121 212.68670582 91.98045032 214.59350586 96.06005859 C215.27860151 97.53607784 215.9635846 99.01214935 216.6484375 100.48828125 C216.95913681 101.147108 217.26983612 101.80593475 217.58995056 102.48472595 C219.52763717 106.67558516 220.70680478 110.47381674 222 115 C214.41 115 206.82 115 199 115 C196.07702667 109.15405333 193.24741206 103.4797429 190.6875 97.5 C190.17574219 96.3140625 189.66398437 95.128125 189.13671875 93.90625 C188 91 188 91 188 89 C169.52 89.33 151.04 89.66 132 90 C128.37 98.25 124.74 106.5 121 115 C115.21262923 115.2774239 109.44866906 115.51533581 103.65991211 115.65917969 C101.69719981 115.71914921 99.73501513 115.80076514 97.77416992 115.90527344 C80.61011455 116.7964588 80.61011455 116.7964588 75.34814453 112.46655273 C72.48549617 109.59572319 70.2447734 106.37228997 68 103 C66.51668974 101.17381629 65.01920615 99.35893227 63.5 97.5625 C62.77941406 96.66789062 62.05882812 95.77328125 61.31640625 94.8515625 C58.73503012 91.67381448 56.0923891 88.5537723 53.4375 85.4375 C48.84911623 80.0436445 44.38261798 74.56303657 40 69 C39.30390625 69.7321875 38.6078125 70.464375 37.890625 71.21875 C35.95957572 73.16886464 34.23553362 74.51999236 31.921875 76.09375 C26.84567459 79.94466066 23.58269351 82.93291323 22.35546875 89.39257812 C21.56485975 97.93723693 21.70608788 106.43133135 22 115 C14.74 115 7.48 115 0 115 C0 77.05 0 39.1 0 0 Z M159 24 C156.28910798 30.36995397 153.58376467 36.74224294 150.88232422 43.11621094 C149.96206184 45.28570267 149.04051564 47.45465028 148.11767578 49.62304688 C146.79384393 52.73426502 145.47459385 55.84739063 144.15625 58.9609375 C143.53284729 60.42193375 143.53284729 60.42193375 142.89685059 61.91244507 C142.5164563 62.81322784 142.13606201 63.71401062 141.74414062 64.64208984 C141.40660767 65.43706879 141.06907471 66.23204773 140.72131348 67.05111694 C139.88429838 68.96626123 139.88429838 68.96626123 140 71 C153.2 71 166.4 71 180 71 C173.78916878 55.11460477 167.00978513 39.54374198 160 24 C159.67 24 159.34 24 159 24 Z " fill="#8C1837" transform="translate(986,291)"/>
<path d="M0 0 C19 0 19 0 23.875 4.5 C24.88345226 6.05888238 25.88940988 7.62011231 26.84667969 9.2109375 C29.09634946 12.70068773 31.84781852 15.81285503 34.5 19 C35.62675256 20.38399169 36.75178466 21.76938604 37.875 23.15625 C40.41003402 26.27629187 42.9522895 29.39029454 45.5 32.5 C50.77631535 38.94134118 56.02266027 45.40695639 61.27099609 51.87109375 C63.04064503 54.05004584 64.81120522 56.22825445 66.58203125 58.40625 C67.16500977 59.12337158 67.74798828 59.84049316 68.34863281 60.5793457 C69.46113002 61.94778066 70.57375285 63.31611351 71.68652344 64.68432617 C72.19344727 65.30799072 72.70037109 65.93165527 73.22265625 66.57421875 C73.66359619 67.11651123 74.10453613 67.65880371 74.55883789 68.2175293 C76.38115798 70.47142714 78.18936411 72.73670513 80 75 C80.33 50.25 80.66 25.5 81 0 C88.26 0 95.52 0 103 0 C103 37.95 103 75.9 103 115 C96.4 115 89.8 115 83 115 C76.2393724 108.09997802 76.2393724 108.09997802 74.43359375 104.92578125 C72.12774126 101.09890801 69.45376727 97.83946837 66.5 94.5 C62.71050724 90.09112906 59.06698049 85.59037248 55.5 81 C51.42958352 75.76256134 47.22754034 70.66408952 42.9206543 65.61987305 C38.83560554 60.8298725 34.90916615 55.9345212 31 51 C28.36 47.7 25.72 44.4 23 41 C22.67 65.42 22.34 89.84 22 115 C14.74 115 7.48 115 0 115 C0 77.05 0 39.1 0 0 Z " fill="#8C1837" transform="translate(728,291)"/>
<path d="M0 0 C72.37931034 0 72.37931034 0 86.90625 13.8125 C95.00957842 22.32786207 97.36717341 32.50103722 97.2109375 44 C96.40770058 55.42381403 92.42977502 64.15442212 84 71.875 C80.83592686 74.49752985 77.77567117 76.39533975 74 78 C77.89467786 84.39365205 82.03319324 90.49787177 86.5 96.5 C90.9684346 102.50431558 95.07852795 108.62155856 99 115 C90.75091483 116.47516535 82.09218831 117.66720909 74 115 C66.0994317 108.72076824 60.83998342 98.38538578 56.78808594 89.27514648 C55.41318937 86.57277282 54.37359998 84.90163639 52 83 C46.85289028 81.76176756 41.89614085 81.8338303 36.625 81.9375 C29.385625 81.9684375 29.385625 81.9684375 22 82 C22 92.89 22 103.78 22 115 C14.74 115 7.48 115 0 115 C0 77.05 0 39.1 0 0 Z M22 19 C22 33.85 22 48.7 22 64 C29.1465625 64.061875 29.1465625 64.061875 36.4375 64.125 C38.66391235 64.15231201 38.66391235 64.15231201 40.93530273 64.18017578 C52.04270288 64.22657823 61.39041742 63.69696683 70 56 C74.43842689 50.76217901 74.62460503 44.76616208 74.37109375 38.12109375 C73.7123156 32.58042275 72.22381717 29.06233667 68.1171875 25.25390625 C58.50566749 18.07110366 46.8353431 18.72091666 35.3125 18.875 C30.919375 18.91625 26.52625 18.9575 22 19 Z " fill="#8C1837" transform="translate(557,291)"/>
<path d="M0 0 C3.13379463 2.53819039 6.10987946 5.18837656 9 8 C5.87172451 11.73867071 2.69826079 15.43269846 -0.625 19 C-1.17414063 19.598125 -1.72328125 20.19625 -2.2890625 20.8125 C-4 22 -4 22 -5.91796875 21.8984375 C-8.48641233 20.7901035 -10.46390487 19.32223686 -12.6875 17.625 C-22.2745427 10.79510681 -33.03853082 8.86276637 -44.6875 10.6875 C-54.98113569 12.92074567 -64.18364832 17.60440191 -70.3125 26.375 C-76.49548413 36.48955556 -78.26612794 46.86071853 -76 58.625 C-73.18296093 69.13179435 -67.42997773 77.46271708 -58 83 C-43.11121843 90.32125048 -29.19851782 88.06617261 -14 83 C-14 71.12 -14 59.24 -14 47 C-7.07 47 -0.14 47 7 47 C7.20696807 53.58720597 7.38593649 60.16310542 7.49438477 66.75097656 C7.53958591 68.98997238 7.6009619 71.22870338 7.67895508 73.46679688 C7.78842851 76.68946585 7.83922558 79.9086207 7.87890625 83.1328125 C7.92535782 84.12991241 7.97180939 85.12701233 8.01966858 86.15432739 C8.0217506 89.03494411 7.92008393 91.26702257 7 94 C4.31109607 96.68039467 1.39722865 98.34978679 -2 100 C-2.99386719 100.51949219 -3.98773437 101.03898437 -5.01171875 101.57421875 C-23.91959335 109.4409987 -44.59383358 110.96895171 -64 104 C-78.820088 97.58121189 -89.2934722 87.82461133 -95.8125 73 C-102.27799678 56.24075178 -101.70234901 38.32739206 -94.64453125 21.83203125 C-86.88957906 6.75873276 -74.01997007 -2.56462558 -58.15625 -7.96875 C-39.25659144 -13.2294797 -16.34899508 -11.36203746 0 0 Z " fill="#8C1837" transform="translate(952,300)"/>
<path d="M0 0 C-0.44602291 6.69034366 -3.07345542 12.02812122 -6 18 C-9.27935918 17.44494439 -11.87737782 16.66728416 -14.8125 15.125 C-26.42313614 9.84216055 -40.20694497 8.38395682 -52.4375 12.1875 C-56.63017008 14.32061285 -58.59702606 15.94498148 -61 20 C-61.67906814 23.15599702 -61.91920042 25.89093976 -61 29 C-57.64098054 33.11908956 -54.65305761 34.86695111 -49.625 36.4375 C-48.99360107 36.63867432 -48.36220215 36.83984863 -47.71166992 37.04711914 C-42.63490414 38.61985525 -37.49061665 39.89766988 -32.33496094 41.18237305 C-6.62634628 47.60537346 -6.62634628 47.60537346 1.1875 57.875 C5.98461866 66.14589425 6.46699769 75.69857809 4.3125 84.953125 C0.67402872 94.83763866 -5.69682627 100.38349297 -15 105 C-32.91934599 112.39208976 -55.7039546 110.62566487 -73.4375 103.625 C-78.26052747 101.47780644 -82.62355626 98.94568328 -87 96 C-85.06375702 89.79522136 -82.74390859 83.89174281 -80 78 C-76.30213882 79.40518725 -72.86886034 81.08697828 -69.375 82.9375 C-55.90060092 89.69117191 -41.72585538 91.67164661 -27 88 C-23.57618354 86.68270113 -20.93136584 85.13383668 -18.5625 82.25 C-17.68995518 78.75982073 -17.3445886 75.53076463 -18 72 C-24.23730975 62.8519457 -39.17966463 61.23830538 -49.19140625 58.73242188 C-61.74530716 55.48623566 -73.37779266 51.81166342 -81.44140625 41.08203125 C-85.366905 34.01066242 -85.19193348 24.83668417 -84 17 C-81.16118765 7.66507327 -75.82823514 1.26800591 -67.39453125 -3.4609375 C-46.25291137 -13.77828655 -20.36206734 -10.52615346 0 0 Z " fill="#8C1837" transform="translate(1299,299)"/>
<path d="M0 0 C3.63 0 7.26 0 11 0 C11 103.95 11 207.9 11 315 C7.37 315 3.74 315 0 315 C0 211.05 0 107.1 0 0 Z " fill="#8C1837" transform="translate(500,93)"/>
<path d="M0 0 C7.59 0 15.18 0 23 0 C23 37.95 23 75.9 23 115 C15.41 115 7.82 115 0 115 C0 77.05 0 39.1 0 0 Z " fill="#8C1837" transform="translate(676,291)"/>
</svg>
